<svg viewBox="0 0 303 31" fill="none" xmlns="http://www.w3.org/2000/svg" id="portfolioLogo">
<rect x="230.5" y="2" width="4.9999" height="21.6663" fill="#153535"/>
<path fill-rule="evenodd" clip-rule="evenodd" d="M238 23.6663H243V10.3332H238V23.6663ZM243 6.99991V2.00001H238V6.99991H243Z" fill="#153535"/>
<path fill-rule="evenodd" clip-rule="evenodd" d="M223 23.6663H228V10.3332H223V23.6663ZM228 6.99991V2.00001H223V6.99991H228Z" fill="#153535"/>
<path d="M10.692 25.04C3.78 25.04 0 20.324 0 12.62C0 5.09601 4.392 0.200012 11.736 0.200012C18.9 0.200012 22.752 3.72801 22.752 9.45201V9.63201H17.028V9.48801C17.028 6.46401 15.552 5.42001 11.628 5.42001C7.488 5.42001 5.76 6.93201 5.76 12.62C5.76 18.416 7.596 19.892 12.132 19.892C15.948 19.892 17.64 19.244 17.64 16.364H11.052V11.864H22.824V24.68H17.82V21.008H17.604C16.884 22.844 14.976 25.04 10.692 25.04Z" fill="#153535"/>
<path d="M34.8818 25.04C29.0498 25.04 25.5938 21.368 25.5938 15.644C25.5938 9.88401 29.0498 6.21201 34.8818 6.21201C40.6778 6.21201 44.0617 9.88401 44.0617 15.644C44.0617 21.368 40.6778 25.04 34.8818 25.04ZM34.8818 20.288C37.7978 20.288 38.8058 19.136 38.8058 15.644C38.8058 12.116 37.7978 10.964 34.8818 10.964C31.9298 10.964 30.9218 12.116 30.9218 15.644C30.9218 19.136 31.9298 20.288 34.8818 20.288Z" fill="#153535"/>
<path d="M55.3778 25.04C49.5458 25.04 46.0898 21.368 46.0898 15.644C46.0898 9.88401 49.5458 6.21201 55.3778 6.21201C61.1738 6.21201 64.5578 9.88401 64.5578 15.644C64.5578 21.368 61.1738 25.04 55.3778 25.04ZM55.3778 20.288C58.2938 20.288 59.3018 19.136 59.3018 15.644C59.3018 12.116 58.2938 10.964 55.3778 10.964C52.4258 10.964 51.4178 12.116 51.4178 15.644C51.4178 19.136 52.4258 20.288 55.3778 20.288Z" fill="#153535"/>
<path d="M74.4339 25.04C69.3219 25.04 66.5859 21.332 66.5859 15.644C66.5859 9.92001 69.5019 6.21201 74.4339 6.21201C77.2059 6.21201 78.8619 7.43601 79.6899 8.94801H79.9059V0.560012H85.2699V24.68H80.2659V22.016H80.0859C79.1499 23.96 77.0979 25.04 74.4339 25.04ZM71.9499 15.644C71.9499 18.92 72.8139 20.432 75.9459 20.432C78.5019 20.432 79.9059 19.532 79.9059 17.084V14.168C79.9059 11.72 78.5019 10.82 75.9459 10.82C72.8139 10.82 71.9499 12.332 71.9499 15.644Z" fill="#153535"/>
<path d="M93.9378 24.68H88.5738V6.57201H93.5778V9.74001H93.7938C94.7658 7.68801 96.7098 6.21201 99.8778 6.21201C104.594 6.21201 106.61 9.34401 106.61 13.196V24.68H101.21V14.276C101.21 11.756 100.382 10.856 97.6458 10.856C95.0538 10.856 93.9378 11.684 93.9378 14.42V24.68Z" fill="#153535"/>
<path d="M118.092 25.04C111.864 25.04 109.02 21.404 109.02 15.68C109.02 9.88401 112.476 6.21201 118.128 6.21201C123.564 6.21201 126.768 9.45201 126.768 14.168C126.768 15.176 126.624 16.22 126.516 16.832H114.096C114.204 19.352 115.212 20.36 118.164 20.36C120.324 20.36 121.26 19.892 121.26 18.776V18.56H126.588V18.92C126.588 22.772 123.276 25.04 118.092 25.04ZM117.948 10.64C115.356 10.64 114.348 11.648 114.132 13.556H121.584C121.692 11.684 120.468 10.64 117.948 10.64Z" fill="#153535"/>
<path d="M137.522 25.04C131.834 25.04 129.062 22.916 129.062 18.524V18.416H134.21V19.172C134.21 20.504 135.002 20.792 137.63 20.792C139.826 20.792 140.186 20.468 140.186 19.568C140.186 18.596 139.682 18.38 137.27 17.948L134.534 17.444C130.97 16.796 129.026 15.284 129.026 11.936C129.026 8.58801 131.762 6.21201 136.91 6.21201C141.338 6.21201 144.722 8.30001 144.722 12.368V12.872H139.574V12.368C139.574 11.18 139.07 10.532 136.766 10.532C134.606 10.532 134.102 11 134.102 11.864C134.102 12.728 134.426 12.98 136.586 13.412L139.898 14.096C143.714 14.816 145.298 16.544 145.298 19.496C145.298 22.88 142.526 25.04 137.522 25.04Z" fill="#153535"/>
<path d="M155.698 25.04C150.01 25.04 147.238 22.916 147.238 18.524V18.416H152.386V19.172C152.386 20.504 153.178 20.792 155.806 20.792C158.002 20.792 158.362 20.468 158.362 19.568C158.362 18.596 157.858 18.38 155.446 17.948L152.71 17.444C149.146 16.796 147.202 15.284 147.202 11.936C147.202 8.58801 149.938 6.21201 155.086 6.21201C159.514 6.21201 162.898 8.30001 162.898 12.368V12.872H157.75V12.368C157.75 11.18 157.246 10.532 154.942 10.532C152.782 10.532 152.278 11 152.278 11.864C152.278 12.728 152.602 12.98 154.762 13.412L158.074 14.096C161.89 14.816 163.474 16.544 163.474 19.496C163.474 22.88 160.702 25.04 155.698 25.04Z" fill="#153535"/>
<path d="M172.182 24.68H165.414V18.308H172.182V24.68Z" fill="#153535"/>
<path d="M185.653 25.04C178.417 25.04 174.097 20.144 174.097 12.62C174.097 5.09601 178.417 0.200012 185.653 0.200012C192.781 0.200012 196.633 3.94401 196.633 9.92001V10.244H190.873V10.064C190.873 6.60801 189.433 5.42001 185.617 5.42001C181.549 5.42001 179.857 6.89601 179.857 12.62C179.857 18.344 181.549 19.82 185.617 19.82C189.433 19.82 190.873 18.632 190.873 15.176V14.996H196.633V15.32C196.633 21.296 192.781 25.04 185.653 25.04Z" fill="#153535"/>
<path d="M204.891 24.68H199.527V0.560012H204.891V9.38001H205.107C206.079 7.68801 208.059 6.21201 210.939 6.21201C215.619 6.21201 217.563 9.34401 217.563 13.196V24.68H212.163V14.276C212.163 11.756 211.335 10.856 208.599 10.856C206.007 10.856 204.891 11.72 204.891 14.456V24.68Z" fill="#153535"/>
<path d="M255.1 25.04C249.268 25.04 245.812 21.368 245.812 15.644C245.812 9.88401 249.268 6.21201 255.1 6.21201C260.896 6.21201 264.28 9.88401 264.28 15.644C264.28 21.368 260.896 25.04 255.1 25.04ZM255.1 20.288C258.016 20.288 259.025 19.136 259.025 15.644C259.025 12.116 258.016 10.964 255.1 10.964C252.148 10.964 251.141 12.116 251.141 15.644C251.141 19.136 252.148 20.288 255.1 20.288Z" fill="#153535"/>
<path d="M272.145 24.68H266.781V0.560012H272.145V13.268H274.809L278.913 6.57201H285.105L279.201 15.212L285.069 24.68H278.877L274.917 18.092H272.145V24.68Z" fill="#153535"/>
<path d="M293.908 25.04C287.68 25.04 284.836 21.404 284.836 15.68C284.836 9.88401 288.292 6.21201 293.944 6.21201C299.38 6.21201 302.584 9.45201 302.584 14.168C302.584 15.176 302.44 16.22 302.332 16.832H289.912C290.02 19.352 291.028 20.36 293.98 20.36C296.14 20.36 297.076 19.892 297.076 18.776V18.56H302.404V18.92C302.404 22.772 299.092 25.04 293.908 25.04ZM293.764 10.64C291.172 10.64 290.164 11.648 289.948 13.556H297.4C297.508 11.684 296.284 10.64 293.764 10.64Z" fill="#153535"/>
<path d="M226.271 30.728V26.192H227.711C229.475 26.192 229.763 25.94 229.763 24.608H235.139C234.853 29.41 232.015 30.8 227.819 30.8C227.315 30.8 226.739 30.764 226.271 30.728Z" fill="#153535"/>
</svg>
